ffmpeg started on 2016-12-07 at 04:39:23
Report written to "Output/x264/results/ffmpeg/sintelslow1000k.log"
Command line:
Tools/ffmpeg/ffmpeg -benchmark -y -i Input/y4m/sintel.y4m -c:v libx264 -preset slow -b:v 1000k -an Output/x264/encoded/sintelslow1000k.mkv
ffmpeg version N-82227-gdb23fde Copyright (c) 2000-2016 the FFmpeg developers
  built with gcc 5.4.0 (Ubuntu 5.4.0-6ubuntu1~16.04.2) 20160609
  configuration: --prefix=/home/jaroslav/ffmpeg_build --pkg-config-flags=--static --extra-cflags=-I/home/jaroslav/ffmpeg_build/include --extra-ldflags=-L/home/jaroslav/ffmpeg_build/lib --bindir=/home/jaroslav/bin --enable-gpl --enable-libass --enable-libfdk-aac --enable-libfreetype --enable-libmp3lame --enable-libopus --enable-libtheora --enable-libvorbis --enable-libvpx --enable-libx264 --enable-libx265 --enable-nvenc --enable-libmfx --enable-libxvid --enable-libgsm --enable-libopencore-amrnb --enable-version3 --enable-nonfree
  libavutil      55. 35.100 / 55. 35.100
  libavcodec     57. 66.101 / 57. 66.101
  libavformat    57. 57.100 / 57. 57.100
  libavdevice    57.  2.100 / 57.  2.100
  libavfilter     6. 66.100 /  6. 66.100
  libswscale      4.  3.100 /  4.  3.100
  libswresample   2.  4.100 /  2.  4.100
  libpostproc    54.  2.100 / 54.  2.100
Input #0, yuv4mpegpipe, from 'Input/y4m/sintel.y4m':
  Duration: 00:00:20.83, start: 0.000000, bitrate: 2057307 kb/s
    Stream #0:0: Video: rawvideo (I420 / 0x30323449), yuv420p(progressive), 4096x1744, SAR 1:1 DAR 256:109, 24 fps, 24 tbr, 24 tbn, 24 tbc
[libx264 @ 0x3329120] using SAR=1/1
[libx264 @ 0x3329120] using cpu capabilities: MMX2 SSE2Fast SSSE3 SSE4.2 AVX FMA3 AVX2 LZCNT BMI2
[libx264 @ 0x3329120] profile High, level 5.1
[libx264 @ 0x3329120] 264 - core 148 - H.264/MPEG-4 AVC codec - Copyleft 2003-2016 - http://www.videolan.org/x264.html - options: cabac=1 ref=5 deblock=1:0:0 analyse=0x3:0x113 me=hex subme=8 psy=1 psy_rd=1.00:0.00 mixed_ref=1 me_range=16 chroma_me=1 trellis=2 8x8dct=1 cqm=0 deadzone=21,11 fast_pskip=1 chroma_qp_offset=-2 threads=6 lookahead_threads=1 sliced_threads=0 nr=0 decimate=1 interlaced=0 bluray_compat=0 constrained_intra=0 bframes=3 b_pyramid=2 b_adapt=1 b_bias=0 direct=3 weightb=1 open_gop=0 weightp=2 keyint=250 keyint_min=24 scenecut=40 intra_refresh=0 rc_lookahead=50 rc=abr mbtree=1 bitrate=1000 ratetol=1.0 qcomp=0.60 qpmin=0 qpmax=69 qpstep=4 ip_ratio=1.40 aq=1:1.00
Output #0, matroska, to 'Output/x264/encoded/sintelslow1000k.mkv':
  Metadata:
    encoder         : Lavf57.57.100
    Stream #0:0: Video: h264 (libx264) (H264 / 0x34363248), yuv420p, 4096x1744 [SAR 1:1 DAR 256:109], q=-1--1, 1000 kb/s, 24 fps, 1k tbn, 24 tbc
    Metadata:
      encoder         : Lavc57.66.101 libx264
    Side data:
      cpb: bitrate max/min/avg: 0/0/1000000 buffer size: 0 vbv_delay: -1
Stream mapping:
  Stream #0:0 -> #0:0 (rawvideo (native) -> h264 (libx264))
Press [q] to stop, [?] for help
frame=    9 fps=0.0 q=0.0 size=       0kB time=00:00:00.00 bitrate=N/A speed=   0x    frame=   18 fps= 17 q=0.0 size=       0kB time=00:00:00.00 bitrate=N/A speed=   0x    frame=   27 fps= 17 q=0.0 size=       0kB time=00:00:00.00 bitrate=N/A speed=   0x    frame=   36 fps= 17 q=0.0 size=       0kB time=00:00:00.00 bitrate=N/A speed=   0x    frame=   45 fps= 17 q=0.0 size=       0kB time=00:00:00.00 bitrate=N/A speed=   0x    frame=   49 fps= 16 q=0.0 size=       0kB time=00:00:00.00 bitrate=N/A speed=   0x    frame=   57 fps=9.0 q=0.0 size=       0kB time=00:00:00.00 bitrate=N/A speed=   0x    frame=   58 fps=6.0 q=0.0 size=       0kB time=00:00:00.00 bitrate=N/A speed=   0x    frame=   59 fps=5.3 q=0.0 size=       0kB time=00:00:00.00 bitrate=N/A speed=   0x    frame=   66 fps=5.6 q=51.0 size=       1kB time=00:00:00.12 bitrate=  46.6kbits/s speed=0.0107x    frame=   68 fps=5.5 q=57.0 size=       1kB time=00:00:00.20 bitrate=  28.1kbits/s speed=0.017x    frame=   74 fps=5.7 q=59.0 size=       1kB time=00:00:00.45 bitrate=  12.8kbits/s speed=0.0352x    frame=   81 fps=6.0 q=61.0 size=       1kB time=00:00:00.75 bitrate=   7.8kbits/s speed=0.0552x    frame=   83 fps=5.9 q=62.0 size=       1kB time=00:00:00.83 bitrate=   7.0kbits/s speed=0.0591x    frame=   88 fps=6.0 q=62.0 size=       1kB time=00:00:01.04 bitrate=   5.6kbits/s speed=0.0713x    frame=   93 fps=6.1 q=63.0 size=       1kB time=00:00:01.25 bitrate=   4.7kbits/s speed=0.0826x    frame=   97 fps=6.2 q=63.0 size=       1kB time=00:00:01.41 bitrate=   4.1kbits/s speed=0.0907x    frame=  104 fps=6.4 q=64.0 size=       1kB time=00:00:01.70 bitrate=   3.4kbits/s speed=0.106x    frame=  109 fps=6.5 q=64.0 size=       1kB time=00:00:01.91 bitrate=   3.1kbits/s speed=0.115x    frame=  114 fps=6.6 q=65.0 size=       1kB time=00:00:02.12 bitrate=   2.8kbits/s speed=0.123x    frame=  120 fps=6.7 q=65.0 size=       1kB time=00:00:02.37 bitrate=   2.5kbits/s speed=0.132x    frame=  124 fps=6.7 q=66.0 size=       1kB time=00:00:02.54 bitrate=   2.3kbits/s speed=0.138x    frame=  129 fps=6.8 q=66.0 size=       1kB time=00:00:02.75 bitrate=   2.1kbits/s speed=0.145x    frame=  134 fps=6.8 q=66.0 size=       1kB time=00:00:02.95 bitrate=   2.0kbits/s speed=0.151x    frame=  140 fps=7.0 q=67.0 size=       1kB time=00:00:03.20 bitrate=   1.8kbits/s speed=0.16x    frame=  144 fps=7.0 q=67.0 size=       1kB time=00:00:03.37 bitrate=   1.7kbits/s speed=0.163x    frame=  150 fps=7.0 q=67.0 size=       1kB time=00:00:03.62 bitrate=   1.6kbits/s speed=0.17x    frame=  156 fps=7.1 q=68.0 size=       1kB time=00:00:03.87 bitrate=   1.5kbits/s speed=0.177x    frame=  165 fps=7.4 q=68.0 size=     684kB time=00:00:04.25 bitrate=1318.5kbits/s speed=0.19x    frame=  171 fps=7.5 q=64.0 size=     684kB time=00:00:04.50 bitrate=1245.3kbits/s speed=0.196x    frame=  179 fps=7.6 q=68.0 size=     684kB time=00:00:04.83 bitrate=1159.5kbits/s speed=0.206x    frame=  186 fps=7.8 q=68.0 size=     684kB time=00:00:05.12 bitrate=1093.4kbits/s speed=0.214x    frame=  191 fps=7.8 q=68.0 size=     684kB time=00:00:05.33 bitrate=1050.8kbits/s speed=0.216x    frame=  196 fps=7.8 q=69.0 size=     684kB time=00:00:05.54 bitrate=1011.2kbits/s speed=0.22x    frame=  201 fps=7.8 q=69.0 size=     684kB time=00:00:05.75 bitrate= 974.6kbits/s speed=0.224x    frame=  208 fps=7.9 q=69.0 size=     684kB time=00:00:06.04 bitrate= 927.5kbits/s speed=0.23x    frame=  216 fps=8.1 q=69.0 size=     684kB time=00:00:06.37 bitrate= 879.1kbits/s speed=0.238x    frame=  223 fps=8.1 q=69.0 size=    1049kB time=00:00:06.66 bitrate=1288.7kbits/s speed=0.244x    frame=  230 fps=8.3 q=69.0 size=    1049kB time=00:00:06.95 bitrate=1234.8kbits/s speed=0.25x    frame=  237 fps=8.3 q=69.0 size=    1049kB time=00:00:07.25 bitrate=1185.1kbits/s speed=0.255x    frame=  242 fps=8.4 q=69.0 size=    1049kB time=00:00:07.45 bitrate=1152.0kbits/s speed=0.258x    frame=  250 fps=8.5 q=69.0 size=    1193kB time=00:00:07.79 bitrate=1254.5kbits/s speed=0.264x    frame=  257 fps=8.5 q=69.0 size=    1193kB time=00:00:08.08 bitrate=1209.3kbits/s speed=0.269x    frame=  264 fps=8.6 q=69.0 size=    1193kB time=00:00:08.37 bitrate=1167.1kbits/s speed=0.273x    frame=  271 fps=8.7 q=69.0 size=    1193kB time=00:00:08.66 bitrate=1127.8kbits/s speed=0.278x    frame=  280 fps=8.8 q=69.0 size=    1193kB time=00:00:09.04 bitrate=1081.1kbits/s speed=0.285x    frame=  285 fps=8.8 q=69.0 size=    1193kB time=00:00:09.25 bitrate=1056.7kbits/s speed=0.286x    frame=  296 fps=9.0 q=68.0 size=    1193kB time=00:00:09.70 bitrate=1006.9kbits/s speed=0.295x    frame=  304 fps=9.1 q=68.0 size=    1193kB time=00:00:10.04 bitrate= 973.4kbits/s speed= 0.3x    frame=  310 fps=9.1 q=68.0 size=    1193kB time=00:00:10.29 bitrate= 949.8kbits/s speed=0.302x    frame=  321 fps=9.3 q=65.0 size=    1193kB time=00:00:10.75 bitrate= 909.3kbits/s speed=0.311x    frame=  322 fps=9.0 q=68.0 size=    1193kB time=00:00:10.79 bitrate= 905.8kbits/s speed=0.303x    frame=  331 fps=9.2 q=67.0 size=    1452kB time=00:00:11.16 bitrate=1065.1kbits/s speed=0.309x    frame=  340 fps=9.3 q=67.0 size=    1452kB time=00:00:11.54 bitrate=1030.5kbits/s speed=0.315x    frame=  352 fps=9.5 q=66.0 size=    1452kB time=00:00:12.04 bitrate= 987.7kbits/s speed=0.324x    frame=  363 fps=9.6 q=66.0 size=    1452kB time=00:00:12.50 bitrate= 951.5kbits/s speed=0.331x    frame=  374 fps=9.8 q=65.0 size=    1452kB time=00:00:12.95 bitrate= 917.9kbits/s speed=0.338x    frame=  379 fps=9.7 q=65.0 size=    1452kB time=00:00:13.16 bitrate= 903.3kbits/s speed=0.339x    frame=  389 fps=9.9 q=64.0 size=    1452kB time=00:00:13.58 bitrate= 875.6kbits/s speed=0.345x    frame=  399 fps= 10 q=63.0 size=    1452kB time=00:00:14.00 bitrate= 849.6kbits/s speed=0.35x    frame=  407 fps= 10 q=63.0 size=    1452kB time=00:00:14.33 bitrate= 829.8kbits/s speed=0.353x    frame=  415 fps= 10 q=62.0 size=    1452kB time=00:00:14.66 bitrate= 810.9kbits/s speed=0.355x    frame=  427 fps= 10 q=62.0 size=    1593kB time=00:00:15.16 bitrate= 860.2kbits/s speed=0.362x    frame=  435 fps= 10 q=61.0 size=    1593kB time=00:00:15.50 bitrate= 841.7kbits/s speed=0.366x    frame=  445 fps= 10 q=61.0 size=    1593kB time=00:00:15.91 bitrate= 819.7kbits/s speed=0.371x    frame=  454 fps= 10 q=60.0 size=    1593kB time=00:00:16.29 bitrate= 800.8kbits/s speed=0.375x    frame=  461 fps= 10 q=60.0 size=    1593kB time=00:00:16.58 bitrate= 786.8kbits/s speed=0.376x    frame=  470 fps= 11 q=60.0 size=    1593kB time=00:00:16.95 bitrate= 769.4kbits/s speed=0.38x    frame=  479 fps= 11 q=60.0 size=    1731kB time=00:00:17.33 bitrate= 818.3kbits/s speed=0.384x    frame=  488 fps= 11 q=60.0 size=    1731kB time=00:00:17.70 bitrate= 801.0kbits/s speed=0.387x    frame=  496 fps= 11 q=60.0 size=    1731kB time=00:00:18.04 bitrate= 786.1kbits/s speed=0.39x    frame=  500 fps= 10 q=-1.0 Lsize=    1959kB time=00:00:20.70 bitrate= 774.8kbits/s speed=0.427x    
video:1954kB audio:0kB subtitle:0kB other streams:0kB global headers:0kB muxing overhead: 0.226312%
bench: utime=124.804s
bench: maxrss=1812228kB
[libx264 @ 0x3329120] frame I:8     Avg QP:49.04  size:  8619
[libx264 @ 0x3329120] frame P:269   Avg QP:50.92  size:  6275
[libx264 @ 0x3329120] frame B:223   Avg QP:50.74  size:  1093
[libx264 @ 0x3329120] consecutive B-frames: 37.0%  8.4%  6.6% 48.0%
[libx264 @ 0x3329120] mb I  I16..4: 41.4% 58.5%  0.0%
[libx264 @ 0x3329120] mb P  I16..4: 13.5%  7.2%  0.0%  P16..4:  7.6%  0.2%  1.3%  0.0%  0.0%    skip:70.2%
[libx264 @ 0x3329120] mb B  I16..4:  0.2%  0.1%  0.0%  B16..8:  3.1%  0.0%  0.0%  direct: 0.0%  skip:96.6%  L0:49.0% L1:50.3% BI: 0.7%
[libx264 @ 0x3329120] final ratefactor: 57.51
[libx264 @ 0x3329120] 8x8 transform intra:37.8% inter:99.2%
[libx264 @ 0x3329120] direct mvs  spatial:97.8% temporal:2.2%
[libx264 @ 0x3329120] coded y,uvDC,uvAC intra: 0.6% 5.0% 0.0% inter: 0.0% 0.1% 0.0%
[libx264 @ 0x3329120] i16 v,h,dc,p: 85% 12%  2%  2%
[libx264 @ 0x3329120] i8 v,h,dc,ddl,ddr,vr,hd,vl,hu:  6%  4% 89%  0%  0%  0%  0%  0%  0%
[libx264 @ 0x3329120] i4 v,h,dc,ddl,ddr,vr,hd,vl,hu: 28% 14% 13% 10% 14%  5%  6%  4%  6%
[libx264 @ 0x3329120] i8c dc,h,v,p: 99%  0%  0%  0%
[libx264 @ 0x3329120] Weighted P-Frames: Y:1.1% UV:0.7%
[libx264 @ 0x3329120] ref P L0: 43.4%  0.3% 25.8% 11.0% 10.6%  8.9%
[libx264 @ 0x3329120] ref B L0: 71.5% 17.2%  9.9%  1.4%
[libx264 @ 0x3329120] ref B L1: 89.0% 11.0%
[libx264 @ 0x3329120] kb/s:768.20
